<?xml version="1.0" standalone="no"?>
<!DOCTYPE svg PUBLIC "-//W3C//DTD SVG 20010904//EN"
 "http://www.w3.org/TR/2001/REC-SVG-20010904/DTD/svg10.dtd">
<svg version="1.0" xmlns="http://www.w3.org/2000/svg"
 width="337.000000pt" height="86.000000pt" viewBox="0 0 337.000000 86.000000"
 preserveAspectRatio="xMidYMid meet">
<metadata>
Created by potrace 1.16, written by Peter Selinger 2001-2019
</metadata>
<g transform="translate(0.000000,86.000000) scale(0.100000,-0.100000)"
fill="#000000" stroke="none">
<path d="M54 806 l-44 -44 0 -329 c0 -311 1 -330 20 -361 12 -19 38 -41 63
-52 41 -19 83 -20 1447 -20 933 0 1417 4 1442 10 23 7 49 25 68 48 l30 37 0
328 c0 362 -1 370 -63 407 -31 20 -61 20 -1475 20 l-1444 0 -44 -44z m2940 -9
c54 -36 57 -60 54 -388 l-3 -299 -33 -32 -32 -33 -1436 0 -1436 0 -29 33 -29
32 0 320 0 319 24 28 c24 28 26 28 173 34 81 3 726 5 1433 5 1228 -1 1287 -2
1314 -19z"/>
<path d="M99 761 l-29 -29 0 -297 c0 -302 2 -324 39 -352 12 -10 336 -12 1439
-13 l1423 0 24 26 25 27 0 304 0 305 -29 29 -29 29 -1417 0 -1417 0 -29 -29z
m1176 -86 c67 -18 89 -34 80 -58 -10 -23 -59 -37 -137 -37 -57 0 -81 5 -136
32 -59 29 -76 32 -152 32 -89 0 -134 -14 -154 -47 -17 -28 27 -57 151 -103
183 -66 249 -119 228 -180 -29 -82 -329 -144 -635 -130 -80 3 -167 10 -195 16
-154 32 -170 119 -23 136 74 8 129 -12 147 -53 8 -17 26 -36 40 -43 41 -19
128 -23 226 -11 109 13 157 26 185 49 43 35 7 62 -173 132 -76 29 -120 53
-148 79 -45 43 -47 58 -17 96 37 47 107 72 308 109 57 11 346 -3 405 -19z
m1565 -90 c0 -21 5 -25 30 -25 23 0 30 -4 30 -20 0 -15 -7 -20 -24 -20 -30 0
-40 -13 -31 -40 4 -13 15 -20 31 -20 15 0 24 -6 24 -15 0 -13 -13 -15 -72 -13
l-73 3 -9 43 c-6 23 -16 42 -23 42 -7 0 -13 9 -13 20 0 11 7 20 15 20 8 0 15
4 15 9 0 8 69 38 93 40 4 1 7 -10 7 -24z m-1602 -67 c4 -46 23 -64 51 -48 16
8 21 21 21 50 l0 40 55 0 56 0 -3 -72 -3 -73 -44 -3 c-24 -2 -47 1 -50 7 -5 7
-19 7 -46 0 -44 -13 -109 -7 -130 11 -10 8 -15 32 -15 72 l0 59 53 -3 52 -3 3
-37z m334 31 c2 -7 12 -7 33 1 39 15 106 4 134 -21 62 -58 -20 -134 -124 -115
-33 6 -35 5 -35 -19 0 -24 -3 -25 -54 -25 l-53 0 -7 53 c-3 28 -6 71 -6 95 l0
42 54 0 c30 0 56 -5 58 -11z m332 3 c3 -5 27 -4 53 1 90 18 167 -40 129 -97
-21 -34 -86 -51 -138 -38 -39 10 -39 10 -36 -16 3 -26 1 -27 -48 -30 -61 -4
-64 1 -64 116 l0 72 49 0 c28 0 52 -4 55 -8z m484 -19 c47 -23 50 -56 9 -87
-40 -29 -167 -35 -216 -9 -72 38 -67 76 15 106 59 21 137 17 192 -10z m292 18
c0 -15 -26 -31 -50 -31 -35 0 -50 -17 -50 -57 0 -33 0 -33 -50 -33 l-50 0 0
64 0 64 100 0 c55 0 100 -4 100 -7z m210 -411 c0 -14 -2656 -14 -2665 0 -4 7
442 10 1329 10 884 0 1336 -3 1336 -10z"/>
<path d="M3184 800 c-31 -12 -72 -66 -80 -105 -8 -42 19 -100 59 -129 54 -40
144 -21 183 39 20 31 20 109 -1 141 -34 52 -106 77 -161 54z m96 -25 c39 -20
60 -53 60 -93 0 -67 -42 -111 -106 -112 -98 0 -143 109 -76 184 33 37 77 44
122 21z"/>
</g>
</svg>
